  0
SECTION
  2
HEADER
  9
$ACADVER
  1
AC1009
  9
$FILLMODE
 70
0
  9
$EXTMIN
 10
-3.175558
 20
-2.005000
 30
0.000000
  9
$EXTMAX
 10
7.991000
 20
28.505000
 30
0.000000
  0
ENDSEC
  0
SECTION
  2
TABLES
  0
TABLE
  2
LTYPE
 70
1
  0
LTYPE
  2
CONTINUOUS
 70
64
  3
Solid line
 72
65
 73
0
 40
0
  0
ENDTAB
  0
TABLE
  2
LAYER
 70
255
  0
LAYER
  2
20
 70
64
 62
7
  6
CONTINUOUS
  0
ENDTAB
  0
ENDSEC
  0
SECTION
  2
BLOCKS
  0
BLOCK
  8
0
  2
RECT
 70
64
 10
0.000000
 20
0.000000
 30
0.000000
  3
RECT
  0
SOLID
  8
0
 10
-0.500000
 20
-0.500000
 30
0.000000
 11
0.500000
 21
-0.500000
 31
0.000000
 12
-0.500000
 22
0.500000
 32
0.000000
 13
0.500000
 23
0.500000
 33
0.000000
  0
ENDBLK
  8
0
  0
BLOCK
  8
0
  2
PIE
 70
64
 10
0.000000
 20
0.000000
 30
0.000000
  3
PIE
  0
CIRCLE
  8
0
 10
0.000000
 20
0.000000
 30
0.000000
 40
0.500000
  0
ENDBLK
  8
0
  0
BLOCK
  8
0
  2
OCTAGONP
 70
64
 10
0.000000
 20
0.000000
 30
0.000000
  3
OCTAGONP
  0
POLYLINE
  8
0
 66
1
 10
0.000000
 20
0.000000
 30
0.000000
 40
0.000000
 41
0.000000
 70
1
  0
VERTEX
  8
0
 10
-0.500000
 20
-0.207107
 30
0.000000
  0
VERTEX
  8
0
 10
-0.500000
 20
0.207107
 30
0.000000
  0
VERTEX
  8
0
 10
-0.207107
 20
0.500000
 30
0.000000
  0
VERTEX
  8
0
 10
0.207107
 20
0.500000
 30
0.000000
  0
VERTEX
  8
0
 10
0.500000
 20
0.207107
 30
0.000000
  0
VERTEX
  8
0
 10
0.500000
 20
-0.207107
 30
0.000000
  0
VERTEX
  8
0
 10
0.207107
 20
-0.500000
 30
0.000000
  0
VERTEX
  8
0
 10
-0.207107
 20
-0.500000
 30
0.000000
  0
SEQEND
  8
0
  0
ENDBLK
  8
0
  0
BLOCK
  8
0
  2
SQUAREP
 70
64
 10
0.000000
 20
0.000000
 30
0.000000
  3
SQUAREP
  0
SOLID
  8
0
 10
-0.500000
 20
-0.500000
 30
0.000000
 11
0.500000
 21
-0.500000
 31
0.000000
 12
-0.500000
 22
0.500000
 32
0.000000
 13
0.500000
 23
0.500000
 33
0.000000
  0
ENDBLK
  8
0
  0
BLOCK
  8
0
  2
ROUNDP
 70
64
 10
0.000000
 20
0.000000
 30
0.000000
  3
ROUNDP
  0
CIRCLE
  8
0
 10
0.000000
 20
0.000000
 30
0.000000
 40
0.500000
  0
ENDBLK
  8
0
  0
BLOCK
  8
0
  2
ANNULUSP
 70
64
 10
0.000000
 20
0.000000
 30
0.000000
  3
ANNULUSP
  0
CIRCLE
  8
0
 10
0.000000
 20
0.000000
 30
0.000000
 40
0.500000
  0
ENDBLK
  8
0
  0
BLOCK
  8
0
  2
THERMALP
 70
64
 10
0.000000
 20
0.000000
 30
0.000000
  3
THERMALP
  0
LINE
  8
0
 10
-0.237868
 20
0.450000
 30
0.000000
 11
0.237868
 21
0.450000
 31
0.000000
  0
LINE
  8
0
 10
0.450000
 20
0.237868
 30
0.000000
 11
0.450000
 21
-0.237868
 31
0.000000
  0
LINE
  8
0
 10
0.237868
 20
-0.450000
 30
0.000000
 11
-0.237868
 21
-0.450000
 31
0.000000
  0
LINE
  8
0
 10
-0.450000
 20
-0.237868
 30
0.000000
 11
-0.450000
 21
0.237868
 31
0.000000
  0
ENDBLK
  8
0
  0
BLOCK
  8
0
  2
OCTAGONV
 70
64
 10
0.000000
 20
0.000000
 30
0.000000
  3
OCTAGONV
  0
POLYLINE
  8
0
 66
1
 10
0.000000
 20
0.000000
 30
0.000000
 40
0.000000
 41
0.000000
 70
1
  0
VERTEX
  8
0
 10
-0.500000
 20
-0.207107
 30
0.000000
  0
VERTEX
  8
0
 10
-0.500000
 20
0.207107
 30
0.000000
  0
VERTEX
  8
0
 10
-0.207107
 20
0.500000
 30
0.000000
  0
VERTEX
  8
0
 10
0.207107
 20
0.500000
 30
0.000000
  0
VERTEX
  8
0
 10
0.500000
 20
0.207107
 30
0.000000
  0
VERTEX
  8
0
 10
0.500000
 20
-0.207107
 30
0.000000
  0
VERTEX
  8
0
 10
0.207107
 20
-0.500000
 30
0.000000
  0
VERTEX
  8
0
 10
-0.207107
 20
-0.500000
 30
0.000000
  0
SEQEND
  8
0
  0
ENDBLK
  8
0
  0
BLOCK
  8
0
  2
SQUAREV
 70
64
 10
0.000000
 20
0.000000
 30
0.000000
  3
SQUAREV
  0
SOLID
  8
0
 10
-0.500000
 20
-0.500000
 30
0.000000
 11
0.500000
 21
-0.500000
 31
0.000000
 12
-0.500000
 22
0.500000
 32
0.000000
 13
0.500000
 23
0.500000
 33
0.000000
  0
ENDBLK
  8
0
  0
BLOCK
  8
0
  2
ROUNDV
 70
64
 10
0.000000
 20
0.000000
 30
0.000000
  3
ROUNDV
  0
CIRCLE
  8
0
 10
0.000000
 20
0.000000
 30
0.000000
 40
0.500000
  0
ENDBLK
  8
0
  0
BLOCK
  8
0
  2
ANNULUSV
 70
64
 10
0.000000
 20
0.000000
 30
0.000000
  3
ANNULUSV
  0
CIRCLE
  8
0
 10
0.000000
 20
0.000000
 30
0.000000
 40
0.500000
  0
ENDBLK
  8
0
  0
BLOCK
  8
0
  2
THERMALV
 70
64
 10
0.000000
 20
0.000000
 30
0.000000
  3
THERMALV
  0
LINE
  8
0
 10
-0.237868
 20
0.450000
 30
0.000000
 11
0.237868
 21
0.450000
 31
0.000000
  0
LINE
  8
0
 10
0.450000
 20
0.237868
 30
0.000000
 11
0.450000
 21
-0.237868
 31
0.000000
  0
LINE
  8
0
 10
0.237868
 20
-0.450000
 30
0.000000
 11
-0.237868
 21
-0.450000
 31
0.000000
  0
LINE
  8
0
 10
-0.450000
 20
-0.237868
 30
0.000000
 11
-0.450000
 21
0.237868
 31
0.000000
  0
ENDBLK
  8
0
  0
ENDSEC
  0
SECTION
  2
ENTITIES
  0
LINE
  8
20
 10
3.487500
 20
3.850000
 30
0.000000
 11
7.385000
 21
3.850000
 31
0.000000
  0
LINE
  8
20
 10
7.385000
 20
3.850000
 30
0.000000
 11
7.385000
 21
22.550000
 31
0.000000
  0
LINE
  8
20
 10
7.385000
 20
22.550000
 30
0.000000
 11
3.487500
 21
22.550000
 31
0.000000
  0
LINE
  8
20
 10
3.487500
 20
22.550000
 30
0.000000
 11
3.487500
 21
3.850000
 31
0.000000
  0
CIRCLE
  8
20
 10
2.052750
 20
22.272250
 30
0.000000
 40
0.067000
  0
CIRCLE
  8
20
 10
2.052750
 20
21.727750
 30
0.000000
 40
0.067000
  0
CIRCLE
  8
20
 10
2.325000
 20
22.000000
 30
0.000000
 40
0.250000
  0
CIRCLE
  8
20
 10
2.597250
 20
21.727750
 30
0.000000
 40
0.067000
  0
CIRCLE
  8
20
 10
2.597250
 20
22.272250
 30
0.000000
 40
0.067000
  0
CIRCLE
  8
20
 10
-2.052750
 20
22.272250
 30
0.000000
 40
0.067000
  0
CIRCLE
  8
20
 10
-2.052750
 20
21.727750
 30
0.000000
 40
0.067000
  0
CIRCLE
  8
20
 10
-2.325000
 20
22.000000
 30
0.000000
 40
0.250000
  0
CIRCLE
  8
20
 10
-2.597250
 20
21.727750
 30
0.000000
 40
0.067000
  0
CIRCLE
  8
20
 10
-2.597250
 20
22.272250
 30
0.000000
 40
0.067000
  0
CIRCLE
  8
20
 10
-0.790000
 20
22.505000
 30
0.000000
 40
0.562500
  0
CIRCLE
  8
20
 10
-0.668446
 20
23.194365
 30
0.000000
 40
0.067000
  0
CIRCLE
  8
20
 10
-0.911554
 20
21.815634
 30
0.000000
 40
0.067000
  0
LINE
  8
20
 10
3.485000
 20
5.495000
 30
0.000000
 11
3.485000
 21
6.505000
 31
0.000000
  0
LINE
  8
20
 10
3.485000
 20
6.505000
 30
0.000000
 11
3.745000
 21
6.505000
 31
0.000000
  0
LINE
  8
20
 10
3.745000
 20
6.505000
 30
0.000000
 11
3.745000
 21
5.495000
 31
0.000000
  0
LINE
  8
20
 10
3.745000
 20
5.495000
 30
0.000000
 11
3.485000
 21
5.495000
 31
0.000000
  0
CIRCLE
  8
20
 10
-1.313000
 20
2.375000
 30
0.000000
 40
0.250000
  0
CIRCLE
  8
20
 10
-1.403587
 20
2.036926
 30
0.000000
 40
0.067000
  0
CIRCLE
  8
20
 10
-1.222413
 20
2.713074
 30
0.000000
 40
0.067000
  0
CIRCLE
  8
20
 10
-0.695000
 20
1.690000
 30
0.000000
 40
0.562500
  0
CIRCLE
  8
20
 10
-0.200025
 20
2.184975
 30
0.000000
 40
0.067000
  0
CIRCLE
  8
20
 10
-1.189975
 20
1.195025
 30
0.000000
 40
0.067000
  0
CIRCLE
  8
20
 10
-2.140000
 20
1.760000
 30
0.000000
 40
0.562500
  0
CIRCLE
  8
20
 10
-2.634975
 20
2.254975
 30
0.000000
 40
0.067000
  0
CIRCLE
  8
20
 10
-1.645025
 20
1.265025
 30
0.000000
 40
0.067000
  0
CIRCLE
  8
20
 10
-2.597250
 20
0.947250
 30
0.000000
 40
0.067000
  0
CIRCLE
  8
20
 10
-2.052750
 20
0.947250
 30
0.000000
 40
0.067000
  0
CIRCLE
  8
20
 10
-2.325000
 20
0.675000
 30
0.000000
 40
0.250000
  0
CIRCLE
  8
20
 10
-2.052750
 20
0.402750
 30
0.000000
 40
0.067000
  0
CIRCLE
  8
20
 10
-2.597250
 20
0.402750
 30
0.000000
 40
0.067000
  0
CIRCLE
  8
20
 10
2.597250
 20
0.947250
 30
0.000000
 40
0.067000
  0
CIRCLE
  8
20
 10
2.052750
 20
0.947250
 30
0.000000
 40
0.067000
  0
CIRCLE
  8
20
 10
2.325000
 20
0.675000
 30
0.000000
 40
0.250000
  0
CIRCLE
  8
20
 10
2.052750
 20
0.402750
 30
0.000000
 40
0.067000
  0
CIRCLE
  8
20
 10
2.597250
 20
0.402750
 30
0.000000
 40
0.067000
  0
LINE
  8
20
 10
-2.079113
 20
3.546653
 30
0.000000
 11
-2.079113
 21
5.046653
 31
0.000000
  0
LINE
  8
20
 10
-2.079113
 20
5.046653
 30
0.000000
 11
-2.106613
 21
5.046653
 31
0.000000
  0
LINE
  8
20
 10
-2.106613
 20
5.046653
 30
0.000000
 11
-2.106613
 21
5.121653
 31
0.000000
  0
LINE
  8
20
 10
-2.106613
 20
5.121653
 30
0.000000
 11
-2.031613
 21
5.121653
 31
0.000000
  0
LINE
  8
20
 10
-2.031613
 20
5.121653
 30
0.000000
 11
-2.031613
 21
5.102653
 31
0.000000
  0
LINE
  8
20
 10
-2.031613
 20
5.102653
 30
0.000000
 11
-1.331613
 21
5.102653
 31
0.000000
  0
LINE
  8
20
 10
-1.331613
 20
5.102653
 30
0.000000
 11
-1.331613
 21
5.121653
 31
0.000000
  0
LINE
  8
20
 10
-1.331613
 20
5.121653
 30
0.000000
 11
-1.256613
 21
5.121653
 31
0.000000
  0
LINE
  8
20
 10
-1.256613
 20
5.121653
 30
0.000000
 11
-1.256613
 21
5.046653
 31
0.000000
  0
LINE
  8
20
 10
-1.256613
 20
5.046653
 30
0.000000
 11
-1.284113
 21
5.046653
 31
0.000000
  0
LINE
  8
20
 10
-1.284113
 20
5.046653
 30
0.000000
 11
-1.284113
 21
3.546653
 31
0.000000
  0
LINE
  8
20
 10
-1.284113
 20
3.546653
 30
0.000000
 11
-1.256613
 21
3.546653
 31
0.000000
  0
LINE
  8
20
 10
-1.256613
 20
3.546653
 30
0.000000
 11
-1.256613
 21
3.471653
 31
0.000000
  0
LINE
  8
20
 10
-1.256613
 20
3.471653
 30
0.000000
 11
-1.331613
 21
3.471653
 31
0.000000
  0
LINE
  8
20
 10
-1.331613
 20
3.471653
 30
0.000000
 11
-1.331613
 21
3.490653
 31
0.000000
  0
LINE
  8
20
 10
-1.331613
 20
3.490653
 30
0.000000
 11
-1.551613
 21
3.490653
 31
0.000000
  0
LINE
  8
20
 10
-1.551613
 20
3.490653
 30
0.000000
 11
-1.581613
 21
3.296653
 31
0.000000
  0
LINE
  8
20
 10
-1.581613
 20
3.296653
 30
0.000000
 11
-1.606613
 21
3.296653
 31
0.000000
  0
LINE
  8
20
 10
-1.606613
 20
3.296653
 30
0.000000
 11
-1.606613
 21
3.196653
 31
0.000000
  0
LINE
  8
20
 10
-1.606613
 20
3.196653
 30
0.000000
 11
-1.756613
 21
3.196653
 31
0.000000
  0
LINE
  8
20
 10
-1.756613
 20
3.196653
 30
0.000000
 11
-1.756613
 21
3.296653
 31
0.000000
  0
LINE
  8
20
 10
-1.756613
 20
3.296653
 30
0.000000
 11
-1.781613
 21
3.296653
 31
0.000000
  0
LINE
  8
20
 10
-1.781613
 20
3.296653
 30
0.000000
 11
-1.811613
 21
3.490653
 31
0.000000
  0
LINE
  8
20
 10
-1.811613
 20
3.490653
 30
0.000000
 11
-2.031613
 21
3.490653
 31
0.000000
  0
LINE
  8
20
 10
-2.031613
 20
3.490653
 30
0.000000
 11
-2.031613
 21
3.471653
 31
0.000000
  0
LINE
  8
20
 10
-2.031613
 20
3.471653
 30
0.000000
 11
-2.106613
 21
3.471653
 31
0.000000
  0
LINE
  8
20
 10
-2.106613
 20
3.471653
 30
0.000000
 11
-2.106613
 21
3.546653
 31
0.000000
  0
LINE
  8
20
 10
-2.106613
 20
3.546653
 30
0.000000
 11
-2.079113
 21
3.546653
 31
0.000000
  0
CIRCLE
  8
20
 10
-1.491613
 20
5.236653
 30
0.000000
 40
0.067000
  0
CIRCLE
  8
20
 10
-1.871613
 20
5.236653
 30
0.000000
 40
0.067000
  0
CIRCLE
  8
20
 10
-1.871613
 20
3.334653
 30
0.000000
 40
0.067000
  0
CIRCLE
  8
20
 10
-1.491613
 20
3.334653
 30
0.000000
 40
0.067000
  0
LINE
  8
20
 10
-0.795000
 20
4.495000
 30
0.000000
 11
-0.795000
 21
5.505000
 31
0.000000
  0
LINE
  8
20
 10
-0.795000
 20
5.505000
 30
0.000000
 11
-0.535000
 21
5.505000
 31
0.000000
  0
LINE
  8
20
 10
-0.535000
 20
5.505000
 30
0.000000
 11
-0.535000
 21
4.495000
 31
0.000000
  0
LINE
  8
20
 10
-0.535000
 20
4.495000
 30
0.000000
 11
-0.795000
 21
4.495000
 31
0.000000
  0
LINE
  8
20
 10
-0.795000
 20
6.495000
 30
0.000000
 11
-0.795000
 21
7.505000
 31
0.000000
  0
LINE
  8
20
 10
-0.795000
 20
7.505000
 30
0.000000
 11
-0.535000
 21
7.505000
 31
0.000000
  0
LINE
  8
20
 10
-0.535000
 20
7.505000
 30
0.000000
 11
-0.535000
 21
6.495000
 31
0.000000
  0
LINE
  8
20
 10
-0.535000
 20
6.495000
 30
0.000000
 11
-0.795000
 21
6.495000
 31
0.000000
  0
LINE
  8
20
 10
-0.795000
 20
8.495000
 30
0.000000
 11
-0.795000
 21
9.505000
 31
0.000000
  0
LINE
  8
20
 10
-0.795000
 20
9.505000
 30
0.000000
 11
-0.535000
 21
9.505000
 31
0.000000
  0
LINE
  8
20
 10
-0.535000
 20
9.505000
 30
0.000000
 11
-0.535000
 21
8.495000
 31
0.000000
  0
LINE
  8
20
 10
-0.535000
 20
8.495000
 30
0.000000
 11
-0.795000
 21
8.495000
 31
0.000000
  0
LINE
  8
20
 10
-0.795000
 20
10.495000
 30
0.000000
 11
-0.795000
 21
11.505000
 31
0.000000
  0
LINE
  8
20
 10
-0.795000
 20
11.505000
 30
0.000000
 11
-0.535000
 21
11.505000
 31
0.000000
  0
LINE
  8
20
 10
-0.535000
 20
11.505000
 30
0.000000
 11
-0.535000
 21
10.495000
 31
0.000000
  0
LINE
  8
20
 10
-0.535000
 20
10.495000
 30
0.000000
 11
-0.795000
 21
10.495000
 31
0.000000
  0
LINE
  8
20
 10
-0.795000
 20
12.495000
 30
0.000000
 11
-0.795000
 21
13.505000
 31
0.000000
  0
LINE
  8
20
 10
-0.795000
 20
13.505000
 30
0.000000
 11
-0.535000
 21
13.505000
 31
0.000000
  0
LINE
  8
20
 10
-0.535000
 20
13.505000
 30
0.000000
 11
-0.535000
 21
12.495000
 31
0.000000
  0
LINE
  8
20
 10
-0.535000
 20
12.495000
 30
0.000000
 11
-0.795000
 21
12.495000
 31
0.000000
  0
LINE
  8
20
 10
-0.795000
 20
14.495000
 30
0.000000
 11
-0.795000
 21
15.505000
 31
0.000000
  0
LINE
  8
20
 10
-0.795000
 20
15.505000
 30
0.000000
 11
-0.535000
 21
15.505000
 31
0.000000
  0
LINE
  8
20
 10
-0.535000
 20
15.505000
 30
0.000000
 11
-0.535000
 21
14.495000
 31
0.000000
  0
LINE
  8
20
 10
-0.535000
 20
14.495000
 30
0.000000
 11
-0.795000
 21
14.495000
 31
0.000000
  0
LINE
  8
20
 10
-0.795000
 20
16.495000
 30
0.000000
 11
-0.795000
 21
17.505000
 31
0.000000
  0
LINE
  8
20
 10
-0.795000
 20
17.505000
 30
0.000000
 11
-0.535000
 21
17.505000
 31
0.000000
  0
LINE
  8
20
 10
-0.535000
 20
17.505000
 30
0.000000
 11
-0.535000
 21
16.495000
 31
0.000000
  0
LINE
  8
20
 10
-0.535000
 20
16.495000
 30
0.000000
 11
-0.795000
 21
16.495000
 31
0.000000
  0
LINE
  8
20
 10
-0.795000
 20
18.495000
 30
0.000000
 11
-0.795000
 21
19.505000
 31
0.000000
  0
LINE
  8
20
 10
-0.795000
 20
19.505000
 30
0.000000
 11
-0.535000
 21
19.505000
 31
0.000000
  0
LINE
  8
20
 10
-0.535000
 20
19.505000
 30
0.000000
 11
-0.535000
 21
18.495000
 31
0.000000
  0
LINE
  8
20
 10
-0.535000
 20
18.495000
 30
0.000000
 11
-0.795000
 21
18.495000
 31
0.000000
  0
LINE
  8
20
 10
-0.795000
 20
20.495000
 30
0.000000
 11
-0.795000
 21
21.505000
 31
0.000000
  0
LINE
  8
20
 10
-0.795000
 20
21.505000
 30
0.000000
 11
-0.535000
 21
21.505000
 31
0.000000
  0
LINE
  8
20
 10
-0.535000
 20
21.505000
 30
0.000000
 11
-0.535000
 21
20.495000
 31
0.000000
  0
LINE
  8
20
 10
-0.535000
 20
20.495000
 30
0.000000
 11
-0.795000
 21
20.495000
 31
0.000000
  0
LINE
  8
20
 10
0.535000
 20
4.495000
 30
0.000000
 11
0.535000
 21
5.505000
 31
0.000000
  0
LINE
  8
20
 10
0.535000
 20
5.505000
 30
0.000000
 11
0.795000
 21
5.505000
 31
0.000000
  0
LINE
  8
20
 10
0.795000
 20
5.505000
 30
0.000000
 11
0.795000
 21
4.495000
 31
0.000000
  0
LINE
  8
20
 10
0.795000
 20
4.495000
 30
0.000000
 11
0.535000
 21
4.495000
 31
0.000000
  0
LINE
  8
20
 10
0.535000
 20
6.495000
 30
0.000000
 11
0.535000
 21
7.505000
 31
0.000000
  0
LINE
  8
20
 10
0.535000
 20
7.505000
 30
0.000000
 11
0.795000
 21
7.505000
 31
0.000000
  0
LINE
  8
20
 10
0.795000
 20
7.505000
 30
0.000000
 11
0.795000
 21
6.495000
 31
0.000000
  0
LINE
  8
20
 10
0.795000
 20
6.495000
 30
0.000000
 11
0.535000
 21
6.495000
 31
0.000000
  0
LINE
  8
20
 10
0.535000
 20
8.495000
 30
0.000000
 11
0.535000
 21
9.505000
 31
0.000000
  0
LINE
  8
20
 10
0.535000
 20
9.505000
 30
0.000000
 11
0.795000
 21
9.505000
 31
0.000000
  0
LINE
  8
20
 10
0.795000
 20
9.505000
 30
0.000000
 11
0.795000
 21
8.495000
 31
0.000000
  0
LINE
  8
20
 10
0.795000
 20
8.495000
 30
0.000000
 11
0.535000
 21
8.495000
 31
0.000000
  0
LINE
  8
20
 10
0.535000
 20
10.495000
 30
0.000000
 11
0.535000
 21
11.505000
 31
0.000000
  0
LINE
  8
20
 10
0.535000
 20
11.505000
 30
0.000000
 11
0.795000
 21
11.505000
 31
0.000000
  0
LINE
  8
20
 10
0.795000
 20
11.505000
 30
0.000000
 11
0.795000
 21
10.495000
 31
0.000000
  0
LINE
  8
20
 10
0.795000
 20
10.495000
 30
0.000000
 11
0.535000
 21
10.495000
 31
0.000000
  0
LINE
  8
20
 10
0.535000
 20
12.495000
 30
0.000000
 11
0.535000
 21
13.505000
 31
0.000000
  0
LINE
  8
20
 10
0.535000
 20
13.505000
 30
0.000000
 11
0.795000
 21
13.505000
 31
0.000000
  0
LINE
  8
20
 10
0.795000
 20
13.505000
 30
0.000000
 11
0.795000
 21
12.495000
 31
0.000000
  0
LINE
  8
20
 10
0.795000
 20
12.495000
 30
0.000000
 11
0.535000
 21
12.495000
 31
0.000000
  0
LINE
  8
20
 10
0.535000
 20
14.495000
 30
0.000000
 11
0.535000
 21
15.505000
 31
0.000000
  0
LINE
  8
20
 10
0.535000
 20
15.505000
 30
0.000000
 11
0.795000
 21
15.505000
 31
0.000000
  0
LINE
  8
20
 10
0.795000
 20
15.505000
 30
0.000000
 11
0.795000
 21
14.495000
 31
0.000000
  0
LINE
  8
20
 10
0.795000
 20
14.495000
 30
0.000000
 11
0.535000
 21
14.495000
 31
0.000000
  0
LINE
  8
20
 10
0.535000
 20
16.495000
 30
0.000000
 11
0.535000
 21
17.505000
 31
0.000000
  0
LINE
  8
20
 10
0.535000
 20
17.505000
 30
0.000000
 11
0.795000
 21
17.505000
 31
0.000000
  0
LINE
  8
20
 10
0.795000
 20
17.505000
 30
0.000000
 11
0.795000
 21
16.495000
 31
0.000000
  0
LINE
  8
20
 10
0.795000
 20
16.495000
 30
0.000000
 11
0.535000
 21
16.495000
 31
0.000000
  0
LINE
  8
20
 10
0.535000
 20
18.495000
 30
0.000000
 11
0.535000
 21
19.505000
 31
0.000000
  0
LINE
  8
20
 10
0.535000
 20
19.505000
 30
0.000000
 11
0.795000
 21
19.505000
 31
0.000000
  0
LINE
  8
20
 10
0.795000
 20
19.505000
 30
0.000000
 11
0.795000
 21
18.495000
 31
0.000000
  0
LINE
  8
20
 10
0.795000
 20
18.495000
 30
0.000000
 11
0.535000
 21
18.495000
 31
0.000000
  0
LINE
  8
20
 10
0.535000
 20
20.495000
 30
0.000000
 11
0.535000
 21
21.505000
 31
0.000000
  0
LINE
  8
20
 10
0.535000
 20
21.505000
 30
0.000000
 11
0.795000
 21
21.505000
 31
0.000000
  0
LINE
  8
20
 10
0.795000
 20
21.505000
 30
0.000000
 11
0.795000
 21
20.495000
 31
0.000000
  0
LINE
  8
20
 10
0.795000
 20
20.495000
 30
0.000000
 11
0.535000
 21
20.495000
 31
0.000000
  0
LINE
  8
20
 10
3.850000
 20
2.200000
 30
0.000000
 11
3.850000
 21
0.800000
 31
0.000000
  0
ARC
  8
20
 10
4.000000
 20
0.800000
 30
0.000000
 40
0.150000
 50
180.000000
 51
270.000000
  0
ARC
  8
20
 10
4.000000
 20
0.800000
 30
0.000000
 40
0.150000
 50
270.000000
 51
0.000000
  0
LINE
  8
20
 10
4.150000
 20
0.800000
 30
0.000000
 11
4.150000
 21
2.200000
 31
0.000000
  0
ARC
  8
20
 10
4.000000
 20
2.200000
 30
0.000000
 40
0.150000
 50
0.000000
 51
90.000000
  0
ARC
  8
20
 10
4.000000
 20
2.200000
 30
0.000000
 40
0.150000
 50
90.000000
 51
180.000000
  0
CIRCLE
  8
20
 10
4.000000
 20
2.200000
 30
0.000000
 40
0.067000
  0
CIRCLE
  8
20
 10
4.000000
 20
0.800000
 30
0.000000
 40
0.067000
  0
LINE
  8
20
 10
4.850000
 20
1.850000
 30
0.000000
 11
4.850000
 21
1.150000
 31
0.000000
  0
ARC
  8
20
 10
5.000000
 20
1.150000
 30
0.000000
 40
0.150000
 50
180.000000
 51
270.000000
  0
ARC
  8
20
 10
5.000000
 20
1.150000
 30
0.000000
 40
0.150000
 50
270.000000
 51
0.000000
  0
LINE
  8
20
 10
5.150000
 20
1.150000
 30
0.000000
 11
5.150000
 21
1.850000
 31
0.000000
  0
ARC
  8
20
 10
5.000000
 20
1.850000
 30
0.000000
 40
0.150000
 50
0.000000
 51
90.000000
  0
ARC
  8
20
 10
5.000000
 20
1.850000
 30
0.000000
 40
0.150000
 50
90.000000
 51
180.000000
  0
CIRCLE
  8
20
 10
5.000000
 20
1.150000
 30
0.000000
 40
0.067000
  0
CIRCLE
  8
20
 10
5.000000
 20
1.850000
 30
0.000000
 40
0.067000
  0
CIRCLE
  8
20
 10
1.440000
 20
20.840500
 30
0.000000
 40
0.125000
  0
CIRCLE
  8
20
 10
1.440000
 20
20.401697
 30
0.000000
 40
0.125000
  0
CIRCLE
  8
20
 10
1.850000
 20
20.839500
 30
0.000000
 40
0.055000
  0
CIRCLE
  8
20
 10
1.850000
 20
20.406697
 30
0.000000
 40
0.055000
  0
CIRCLE
  8
20
 10
1.440000
 20
5.840500
 30
0.000000
 40
0.125000
  0
CIRCLE
  8
20
 10
1.440000
 20
5.401697
 30
0.000000
 40
0.125000
  0
CIRCLE
  8
20
 10
1.850000
 20
5.839500
 30
0.000000
 40
0.055000
  0
CIRCLE
  8
20
 10
1.850000
 20
5.406697
 30
0.000000
 40
0.055000
  0
CIRCLE
  8
20
 10
1.440000
 20
10.840500
 30
0.000000
 40
0.125000
  0
CIRCLE
  8
20
 10
1.440000
 20
10.401697
 30
0.000000
 40
0.125000
  0
CIRCLE
  8
20
 10
1.850000
 20
10.839500
 30
0.000000
 40
0.055000
  0
CIRCLE
  8
20
 10
1.850000
 20
10.406697
 30
0.000000
 40
0.055000
  0
CIRCLE
  8
20
 10
1.440000
 20
15.840500
 30
0.000000
 40
0.125000
  0
CIRCLE
  8
20
 10
1.440000
 20
15.401697
 30
0.000000
 40
0.125000
  0
CIRCLE
  8
20
 10
1.850000
 20
15.839500
 30
0.000000
 40
0.055000
  0
CIRCLE
  8
20
 10
1.850000
 20
15.406697
 30
0.000000
 40
0.055000
  0
CIRCLE
  8
20
 10
-1.977750
 20
23.522250
 30
0.000000
 40
0.067000
  0
CIRCLE
  8
20
 10
-1.977750
 20
22.977750
 30
0.000000
 40
0.067000
  0
CIRCLE
  8
20
 10
-2.250000
 20
23.250000
 30
0.000000
 40
0.250000
  0
CIRCLE
  8
20
 10
-2.522250
 20
22.977750
 30
0.000000
 40
0.067000
  0
CIRCLE
  8
20
 10
-2.522250
 20
23.522250
 30
0.000000
 40
0.067000
  0
CIRCLE
  8
20
 10
1.977750
 20
23.522250
 30
0.000000
 40
0.067000
  0
CIRCLE
  8
20
 10
1.977750
 20
22.977750
 30
0.000000
 40
0.067000
  0
CIRCLE
  8
20
 10
2.250000
 20
23.250000
 30
0.000000
 40
0.250000
  0
CIRCLE
  8
20
 10
2.522250
 20
22.977750
 30
0.000000
 40
0.067000
  0
CIRCLE
  8
20
 10
2.522250
 20
23.522250
 30
0.000000
 40
0.067000
  0
LINE
  8
20
 10
1.750000
 20
7.600000
 30
0.000000
 11
1.750000
 21
6.850000
 31
0.000000
  0
LINE
  8
20
 10
1.750000
 20
6.850000
 30
0.000000
 11
2.050000
 21
6.850000
 31
0.000000
  0
LINE
  8
20
 10
2.050000
 20
6.850000
 30
0.000000
 11
2.050000
 21
7.600000
 31
0.000000
  0
LINE
  8
20
 10
2.050000
 20
7.600000
 30
0.000000
 11
1.750000
 21
7.600000
 31
0.000000
  0
CIRCLE
  8
20
 10
1.909900
 20
7.448100
 30
0.000000
 40
0.067000
  0
CIRCLE
  8
20
 10
1.909800
 20
7.010100
 30
0.000000
 40
0.067000
  0
LINE
  8
20
 10
2.250000
 20
7.600000
 30
0.000000
 11
2.250000
 21
6.850000
 31
0.000000
  0
LINE
  8
20
 10
2.250000
 20
6.850000
 30
0.000000
 11
2.550000
 21
6.850000
 31
0.000000
  0
LINE
  8
20
 10
2.550000
 20
6.850000
 30
0.000000
 11
2.550000
 21
7.600000
 31
0.000000
  0
LINE
  8
20
 10
2.550000
 20
7.600000
 30
0.000000
 11
2.250000
 21
7.600000
 31
0.000000
  0
CIRCLE
  8
20
 10
2.409900
 20
7.448100
 30
0.000000
 40
0.067000
  0
CIRCLE
  8
20
 10
2.409800
 20
7.010100
 30
0.000000
 40
0.067000
  0
LINE
  8
20
 10
1.750000
 20
8.550000
 30
0.000000
 11
1.750000
 21
7.800000
 31
0.000000
  0
LINE
  8
20
 10
1.750000
 20
7.800000
 30
0.000000
 11
2.050000
 21
7.800000
 31
0.000000
  0
LINE
  8
20
 10
2.050000
 20
7.800000
 30
0.000000
 11
2.050000
 21
8.550000
 31
0.000000
  0
LINE
  8
20
 10
2.050000
 20
8.550000
 30
0.000000
 11
1.750000
 21
8.550000
 31
0.000000
  0
CIRCLE
  8
20
 10
1.909900
 20
8.398100
 30
0.000000
 40
0.067000
  0
CIRCLE
  8
20
 10
1.909800
 20
7.960100
 30
0.000000
 40
0.067000
  0
LINE
  8
20
 10
2.250000
 20
8.550000
 30
0.000000
 11
2.250000
 21
7.800000
 31
0.000000
  0
LINE
  8
20
 10
2.250000
 20
7.800000
 30
0.000000
 11
2.550000
 21
7.800000
 31
0.000000
  0
LINE
  8
20
 10
2.550000
 20
7.800000
 30
0.000000
 11
2.550000
 21
8.550000
 31
0.000000
  0
LINE
  8
20
 10
2.550000
 20
8.550000
 30
0.000000
 11
2.250000
 21
8.550000
 31
0.000000
  0
CIRCLE
  8
20
 10
2.409900
 20
8.398100
 30
0.000000
 40
0.067000
  0
CIRCLE
  8
20
 10
2.409800
 20
7.960100
 30
0.000000
 40
0.067000
  0
LINE
  8
20
 10
3.485000
 20
7.495000
 30
0.000000
 11
3.485000
 21
8.505000
 31
0.000000
  0
LINE
  8
20
 10
3.485000
 20
8.505000
 30
0.000000
 11
3.745000
 21
8.505000
 31
0.000000
  0
LINE
  8
20
 10
3.745000
 20
8.505000
 30
0.000000
 11
3.745000
 21
7.495000
 31
0.000000
  0
LINE
  8
20
 10
3.745000
 20
7.495000
 30
0.000000
 11
3.485000
 21
7.495000
 31
0.000000
  0
CIRCLE
  8
20
 10
0.790000
 20
22.505000
 30
0.000000
 40
0.562500
  0
CIRCLE
  8
20
 10
0.668446
 20
23.194365
 30
0.000000
 40
0.067000
  0
CIRCLE
  8
20
 10
0.911554
 20
21.815634
 30
0.000000
 40
0.067000
  0
CIRCLE
  8
20
 10
1.313000
 20
2.375000
 30
0.000000
 40
0.250000
  0
CIRCLE
  8
20
 10
1.403587
 20
2.036926
 30
0.000000
 40
0.067000
  0
CIRCLE
  8
20
 10
1.222413
 20
2.713074
 30
0.000000
 40
0.067000
  0
CIRCLE
  8
20
 10
0.695000
 20
1.690000
 30
0.000000
 40
0.562500
  0
CIRCLE
  8
20
 10
0.200025
 20
2.184975
 30
0.000000
 40
0.067000
  0
CIRCLE
  8
20
 10
1.189975
 20
1.195025
 30
0.000000
 40
0.067000
  0
CIRCLE
  8
20
 10
2.140000
 20
1.760000
 30
0.000000
 40
0.562500
  0
CIRCLE
  8
20
 10
2.634975
 20
2.254975
 30
0.000000
 40
0.067000
  0
CIRCLE
  8
20
 10
1.645025
 20
1.265025
 30
0.000000
 40
0.067000
  0
LINE
  8
20
 10
3.485000
 20
9.495000
 30
0.000000
 11
3.485000
 21
10.505000
 31
0.000000
  0
LINE
  8
20
 10
3.485000
 20
10.505000
 30
0.000000
 11
3.745000
 21
10.505000
 31
0.000000
  0
LINE
  8
20
 10
3.745000
 20
10.505000
 30
0.000000
 11
3.745000
 21
9.495000
 31
0.000000
  0
LINE
  8
20
 10
3.745000
 20
9.495000
 30
0.000000
 11
3.485000
 21
9.495000
 31
0.000000
  0
LINE
  8
20
 10
3.485000
 20
11.495000
 30
0.000000
 11
3.485000
 21
12.505000
 31
0.000000
  0
LINE
  8
20
 10
3.485000
 20
12.505000
 30
0.000000
 11
3.745000
 21
12.505000
 31
0.000000
  0
LINE
  8
20
 10
3.745000
 20
12.505000
 30
0.000000
 11
3.745000
 21
11.495000
 31
0.000000
  0
LINE
  8
20
 10
3.745000
 20
11.495000
 30
0.000000
 11
3.485000
 21
11.495000
 31
0.000000
  0
LINE
  8
20
 10
3.485000
 20
13.495000
 30
0.000000
 11
3.485000
 21
14.505000
 31
0.000000
  0
LINE
  8
20
 10
3.485000
 20
14.505000
 30
0.000000
 11
3.745000
 21
14.505000
 31
0.000000
  0
LINE
  8
20
 10
3.745000
 20
14.505000
 30
0.000000
 11
3.745000
 21
13.495000
 31
0.000000
  0
LINE
  8
20
 10
3.745000
 20
13.495000
 30
0.000000
 11
3.485000
 21
13.495000
 31
0.000000
  0
LINE
  8
20
 10
3.485000
 20
15.495000
 30
0.000000
 11
3.485000
 21
16.505000
 31
0.000000
  0
LINE
  8
20
 10
3.485000
 20
16.505000
 30
0.000000
 11
3.745000
 21
16.505000
 31
0.000000
  0
LINE
  8
20
 10
3.745000
 20
16.505000
 30
0.000000
 11
3.745000
 21
15.495000
 31
0.000000
  0
LINE
  8
20
 10
3.745000
 20
15.495000
 30
0.000000
 11
3.485000
 21
15.495000
 31
0.000000
  0
LINE
  8
20
 10
3.485000
 20
17.495000
 30
0.000000
 11
3.485000
 21
18.505000
 31
0.000000
  0
LINE
  8
20
 10
3.485000
 20
18.505000
 30
0.000000
 11
3.745000
 21
18.505000
 31
0.000000
  0
LINE
  8
20
 10
3.745000
 20
18.505000
 30
0.000000
 11
3.745000
 21
17.495000
 31
0.000000
  0
LINE
  8
20
 10
3.745000
 20
17.495000
 30
0.000000
 11
3.485000
 21
17.495000
 31
0.000000
  0
LINE
  8
20
 10
3.485000
 20
19.495000
 30
0.000000
 11
3.485000
 21
20.505000
 31
0.000000
  0
LINE
  8
20
 10
3.485000
 20
20.505000
 30
0.000000
 11
3.745000
 21
20.505000
 31
0.000000
  0
LINE
  8
20
 10
3.745000
 20
20.505000
 30
0.000000
 11
3.745000
 21
19.495000
 31
0.000000
  0
LINE
  8
20
 10
3.745000
 20
19.495000
 30
0.000000
 11
3.485000
 21
19.495000
 31
0.000000
  0
LINE
  8
20
 10
3.485000
 20
21.495000
 30
0.000000
 11
3.485000
 21
22.505000
 31
0.000000
  0
LINE
  8
20
 10
3.485000
 20
22.505000
 30
0.000000
 11
3.745000
 21
22.505000
 31
0.000000
  0
LINE
  8
20
 10
3.745000
 20
22.505000
 30
0.000000
 11
3.745000
 21
21.495000
 31
0.000000
  0
LINE
  8
20
 10
3.745000
 20
21.495000
 30
0.000000
 11
3.485000
 21
21.495000
 31
0.000000
  0
LINE
  8
20
 10
3.485000
 20
3.495000
 30
0.000000
 11
3.485000
 21
4.505000
 31
0.000000
  0
LINE
  8
20
 10
3.485000
 20
4.505000
 30
0.000000
 11
3.745000
 21
4.505000
 31
0.000000
  0
LINE
  8
20
 10
3.745000
 20
4.505000
 30
0.000000
 11
3.745000
 21
3.495000
 31
0.000000
  0
LINE
  8
20
 10
3.745000
 20
3.495000
 30
0.000000
 11
3.485000
 21
3.495000
 31
0.000000
  0
LINE
  8
20
 10
7.157500
 20
5.495000
 30
0.000000
 11
7.157500
 21
6.505000
 31
0.000000
  0
LINE
  8
20
 10
7.157500
 20
6.505000
 30
0.000000
 11
7.417500
 21
6.505000
 31
0.000000
  0
LINE
  8
20
 10
7.417500
 20
6.505000
 30
0.000000
 11
7.417500
 21
5.495000
 31
0.000000
  0
LINE
  8
20
 10
7.417500
 20
5.495000
 30
0.000000
 11
7.157500
 21
5.495000
 31
0.000000
  0
LINE
  8
20
 10
7.157500
 20
7.495000
 30
0.000000
 11
7.157500
 21
8.505000
 31
0.000000
  0
LINE
  8
20
 10
7.157500
 20
8.505000
 30
0.000000
 11
7.417500
 21
8.505000
 31
0.000000
  0
LINE
  8
20
 10
7.417500
 20
8.505000
 30
0.000000
 11
7.417500
 21
7.495000
 31
0.000000
  0
LINE
  8
20
 10
7.417500
 20
7.495000
 30
0.000000
 11
7.157500
 21
7.495000
 31
0.000000
  0
LINE
  8
20
 10
7.157500
 20
9.495000
 30
0.000000
 11
7.157500
 21
10.505000
 31
0.000000
  0
LINE
  8
20
 10
7.157500
 20
10.505000
 30
0.000000
 11
7.417500
 21
10.505000
 31
0.000000
  0
LINE
  8
20
 10
7.417500
 20
10.505000
 30
0.000000
 11
7.417500
 21
9.495000
 31
0.000000
  0
LINE
  8
20
 10
7.417500
 20
9.495000
 30
0.000000
 11
7.157500
 21
9.495000
 31
0.000000
  0
LINE
  8
20
 10
7.157500
 20
11.495000
 30
0.000000
 11
7.157500
 21
12.505000
 31
0.000000
  0
LINE
  8
20
 10
7.157500
 20
12.505000
 30
0.000000
 11
7.417500
 21
12.505000
 31
0.000000
  0
LINE
  8
20
 10
7.417500
 20
12.505000
 30
0.000000
 11
7.417500
 21
11.495000
 31
0.000000
  0
LINE
  8
20
 10
7.417500
 20
11.495000
 30
0.000000
 11
7.157500
 21
11.495000
 31
0.000000
  0
LINE
  8
20
 10
7.157500
 20
13.495000
 30
0.000000
 11
7.157500
 21
14.505000
 31
0.000000
  0
LINE
  8
20
 10
7.157500
 20
14.505000
 30
0.000000
 11
7.417500
 21
14.505000
 31
0.000000
  0
LINE
  8
20
 10
7.417500
 20
14.505000
 30
0.000000
 11
7.417500
 21
13.495000
 31
0.000000
  0
LINE
  8
20
 10
7.417500
 20
13.495000
 30
0.000000
 11
7.157500
 21
13.495000
 31
0.000000
  0
LINE
  8
20
 10
7.157500
 20
15.495000
 30
0.000000
 11
7.157500
 21
16.505000
 31
0.000000
  0
LINE
  8
20
 10
7.157500
 20
16.505000
 30
0.000000
 11
7.417500
 21
16.505000
 31
0.000000
  0
LINE
  8
20
 10
7.417500
 20
16.505000
 30
0.000000
 11
7.417500
 21
15.495000
 31
0.000000
  0
LINE
  8
20
 10
7.417500
 20
15.495000
 30
0.000000
 11
7.157500
 21
15.495000
 31
0.000000
  0
LINE
  8
20
 10
7.157500
 20
17.495000
 30
0.000000
 11
7.157500
 21
18.505000
 31
0.000000
  0
LINE
  8
20
 10
7.157500
 20
18.505000
 30
0.000000
 11
7.417500
 21
18.505000
 31
0.000000
  0
LINE
  8
20
 10
7.417500
 20
18.505000
 30
0.000000
 11
7.417500
 21
17.495000
 31
0.000000
  0
LINE
  8
20
 10
7.417500
 20
17.495000
 30
0.000000
 11
7.157500
 21
17.495000
 31
0.000000
  0
LINE
  8
20
 10
7.157500
 20
19.495000
 30
0.000000
 11
7.157500
 21
20.505000
 31
0.000000
  0
LINE
  8
20
 10
7.157500
 20
20.505000
 30
0.000000
 11
7.417500
 21
20.505000
 31
0.000000
  0
LINE
  8
20
 10
7.417500
 20
20.505000
 30
0.000000
 11
7.417500
 21
19.495000
 31
0.000000
  0
LINE
  8
20
 10
7.417500
 20
19.495000
 30
0.000000
 11
7.157500
 21
19.495000
 31
0.000000
  0
LINE
  8
20
 10
7.157500
 20
21.495000
 30
0.000000
 11
7.157500
 21
22.505000
 31
0.000000
  0
LINE
  8
20
 10
7.157500
 20
22.505000
 30
0.000000
 11
7.417500
 21
22.505000
 31
0.000000
  0
LINE
  8
20
 10
7.417500
 20
22.505000
 30
0.000000
 11
7.417500
 21
21.495000
 31
0.000000
  0
LINE
  8
20
 10
7.417500
 20
21.495000
 30
0.000000
 11
7.157500
 21
21.495000
 31
0.000000
  0
LINE
  8
20
 10
7.157500
 20
3.495000
 30
0.000000
 11
7.157500
 21
4.505000
 31
0.000000
  0
LINE
  8
20
 10
7.157500
 20
4.505000
 30
0.000000
 11
7.417500
 21
4.505000
 31
0.000000
  0
LINE
  8
20
 10
7.417500
 20
4.505000
 30
0.000000
 11
7.417500
 21
3.495000
 31
0.000000
  0
LINE
  8
20
 10
7.417500
 20
3.495000
 30
0.000000
 11
7.157500
 21
3.495000
 31
0.000000
  0
ENDSEC
  0
EOF
